<?xml version="1.0" encoding="UTF-8"?>
<!DOCTYPE svg PUBLIC "-//W3C//DTD SVG 1.1//EN" "http://www.w3.org/Graphics/SVG/1.1/DTD/svg11.dtd">
<svg version="1.1" xmlns="http://www.w3.org/2000/svg" xmlns:xlink="http://www.w3.org/1999/xlink" x="0" y="0" width="170" height="170" viewBox="0, 0, 170, 170">
  <g id="Layer_1">
    <g>
      <path d="M39.938,30.778 L84.059,47.723 L84.059,80.309 L39.938,63.364 L39.938,30.778 z" fill="#DCDCDC"/>
      <path d="M39.938,30.484 L84.059,47.428 L84.059,80.015 L39.938,63.07 L39.938,30.484 z" fill="#DCDCDC"/>
    </g>
    <g>
      <path d="M131.181,30.886 L87.059,47.831 L87.059,80.417 L131.181,63.472 L131.181,30.886 z" fill="#868686" fill-opacity="0.804"/>
    </g>
    <g>
      <path d="M86.912,83.309 L131.328,100.193 L131.328,132.663 L86.912,115.778 L86.912,83.309 z" fill="#DCDCDC"/>
      <path d="M86.912,83.309 L131.328,100.193 L131.328,132.663 L86.912,115.778 L86.912,83.309 z" fill="#DCDCDC"/>
    </g>
    <g>
      <path d="M84.059,83.417 L39.938,100.227 L39.938,132.555 L84.059,115.744 L84.059,83.417 z" fill="#9E9E9E"/>
      <path d="M84.059,83.417 L39.938,100.227 L39.938,132.555 L84.059,115.744 L84.059,83.417 z" fill="#9E9E9E"/>
    </g>
  </g>
</svg>
